<svg t="1658381838811" class="icon" viewBox="0 0 1024 1024" version="1.1" xmlns="http://www.w3.org/2000/svg" p-id="6116" width="200" height="200"><path d="M515.072 17.408c-270.848 0-491.52 220.672-491.52 491.52s220.672 491.52 491.52 491.52 491.52-220.672 491.52-491.52c0-271.36-220.672-491.52-491.52-491.52z m0 921.6c-198.656 0-366.08-135.168-415.232-318.464l54.784-69.632L225.792 629.76c6.144 6.656 15.36 10.752 24.576 10.24 9.216-0.512 17.92-5.12 23.04-12.8L439.296 394.24l169.984 270.848c4.608 7.68 12.8 12.8 22.016 14.336 1.536 0 2.56 0.512 4.096 0.512 7.68 0 15.36-3.072 20.992-8.192l186.368-172.544v37.888c0 16.896 13.824 30.72 30.72 30.72s30.72-13.824 30.72-30.72v-112.64c0-16.896-13.824-30.72-30.72-30.72h-112.64c-16.896 0-30.72 13.824-30.72 30.72s13.824 30.72 30.72 30.72h39.424l-158.208 146.432L466.944 322.56c-5.632-8.704-14.848-13.824-25.088-14.336-10.24-0.512-19.968 4.608-26.112 12.8L245.76 560.128 175.616 482.816c-6.144-6.656-14.848-10.24-23.552-10.24-9.216 0.512-17.408 4.608-23.04 11.776l-43.008 54.272c-0.512-9.728-1.024-19.968-1.024-30.208 0-237.056 193.024-430.08 430.08-430.08s430.08 193.024 430.08 430.08-193.024 430.592-430.08 430.592z" p-id="6117" fill="#ffffff"></path></svg>